<?xml version="1.0" encoding="UTF-8"?>
<svg xmlns="http://www.w3.org/2000/svg" xmlns:xlink="http://www.w3.org/1999/xlink" width="700px" height="605px" viewBox="0 0 700 605" version="1.1">
<g id="surface1">
<path style=" stroke:none;fill-rule:nonzero;fill:rgb(4.705882%,43.137255%,60.392157%);fill-opacity:1;" d="M 0 182.992188 L 700 49.296875 L 700 605 L 0 605 Z M 0 182.992188 "/>
<path style=" stroke:none;fill-rule:nonzero;fill:rgb(0%,63.529412%,69.803922%);fill-opacity:1;" d="M 613.957031 39.386719 L 818.609375 0 L 818.609375 48 L 613.957031 87.390625 Z M 613.957031 39.386719 "/>
<path style=" stroke:none;fill-rule:nonzero;fill:rgb(74.901961%,88.235294%,89.019608%);fill-opacity:1;" d="M -73.890625 171.59375 L 130.765625 132.203125 L 130.765625 180.203125 L -73.890625 219.59375 Z M -73.890625 171.59375 "/>
<path style=" stroke:none;fill-rule:evenodd;fill:rgb(74.901961%,88.235294%,89.019608%);fill-opacity:0.501961;" d="M 565.832031 261.21875 C 578.59375 251.558594 584.972656 240.214844 584.972656 227.179688 C 579.53125 226.210938 575.035156 222.792969 571.480469 216.917969 C 567.921875 211.042969 566.148438 204.246094 566.148438 196.519531 C 566.148438 188.3125 567.871094 181.390625 571.320312 175.757812 C 574.773438 170.125 579.113281 167.308594 584.34375 167.308594 C 590.195312 167.308594 595.273438 170.96875 599.558594 178.292969 C 603.847656 185.617188 605.992188 194.507812 605.992188 204.96875 C 605.992188 236.351562 594.589844 260.894531 571.792969 278.597656 Z M 610.855469 261.21875 C 623.71875 251.558594 630.152344 240.214844 630.152344 227.179688 C 624.609375 226.210938 620.058594 222.792969 616.503906 216.917969 C 612.945312 211.042969 611.171875 204.246094 611.171875 196.519531 C 611.171875 188.3125 612.921875 181.390625 616.429688 175.757812 C 619.929688 170.125 624.292969 167.308594 629.523438 167.308594 C 635.382812 167.308594 640.425781 170.96875 644.660156 178.292969 C 648.894531 185.617188 651.015625 194.507812 651.015625 204.96875 C 651.015625 236.351562 639.667969 260.894531 616.976562 278.597656 Z M 610.855469 261.21875 "/>
</g>
</svg>
