<svg width="1440" height="810" viewBox="0 0 1440 810" fill="none" xmlns="http://www.w3.org/2000/svg">
<path d="M0 245L1440 66V810H0V245Z" fill="#0C6E9A"/>
<path d="M1263 52.7347L1684 0V64.2653L1263 117V52.7347Z" fill="#00A2B2"/>
<path d="M-152 229.735L269 177V241.265L-152 294V229.735Z" fill="#BFE1E3"/>
<path fill-rule="evenodd" clip-rule="evenodd" d="M1164 349.729C1190.25 336.8 1203.37 321.61 1203.37 304.156C1192.18 302.863 1182.93 298.285 1175.62 290.42C1168.3 282.555 1164.65 273.451 1164.65 263.108C1164.65 252.119 1168.19 242.854 1175.29 235.312C1182.39 227.771 1191.32 224 1202.08 224C1214.12 224 1224.56 228.902 1233.38 238.706C1242.2 248.51 1246.61 260.415 1246.61 274.421C1246.61 316.438 1223.16 349.298 1176.26 373L1164 349.729ZM1256.62 349.729C1283.08 336.8 1296.31 321.61 1296.31 304.156C1284.91 302.863 1275.55 298.285 1268.24 290.42C1260.92 282.555 1257.27 273.451 1257.27 263.108C1257.27 252.119 1260.87 242.854 1268.08 235.312C1275.28 227.771 1284.26 224 1295.02 224C1307.07 224 1317.45 228.902 1326.16 238.706C1334.87 248.51 1339.23 260.415 1339.23 274.421C1339.23 316.438 1315.89 349.298 1269.21 373L1256.62 349.729Z" fill="#BFE1E3" fill-opacity="0.5"/>
</svg>
