<?xml version="1.0" encoding="UTF-8"?>
<svg xmlns="http://www.w3.org/2000/svg" xmlns:xlink="http://www.w3.org/1999/xlink" width="1778px" height="1000px" viewBox="0 0 1777 1000" version="1.1">
<g id="surface1">
<path style=" stroke:none;fill-rule:nonzero;fill:rgb(4.705882%,43.137255%,60.392157%);fill-opacity:1;" d="M 0 302.46875 L 1777 81.480469 L 1777 1000 L 0 1000 Z M 0 302.46875 "/>
<path style=" stroke:none;fill-rule:nonzero;fill:rgb(0%,63.529412%,69.803922%);fill-opacity:1;" d="M 1558.578125 65.105469 L 2078.101562 0 L 2078.101562 79.339844 L 1558.578125 144.445312 Z M 1558.578125 65.105469 "/>
<path style=" stroke:none;fill-rule:nonzero;fill:rgb(74.901961%,88.235294%,89.019608%);fill-opacity:1;" d="M -187.570312 283.625 L 331.953125 218.519531 L 331.953125 297.859375 L -187.570312 362.964844 Z M -187.570312 283.625 "/>
<path style=" stroke:none;fill-rule:evenodd;fill:rgb(74.901961%,88.235294%,89.019608%);fill-opacity:0.501961;" d="M 1436.410156 431.765625 C 1468.800781 415.800781 1484.992188 397.050781 1484.992188 375.5 C 1471.183594 373.90625 1459.769531 368.253906 1450.746094 358.542969 C 1441.714844 348.832031 1437.210938 337.59375 1437.210938 324.824219 C 1437.210938 311.257812 1441.578125 299.820312 1450.339844 290.507812 C 1459.101562 281.199219 1470.121094 276.542969 1483.398438 276.542969 C 1498.257812 276.542969 1511.140625 282.59375 1522.023438 294.699219 C 1532.910156 306.800781 1538.351562 321.5 1538.351562 338.792969 C 1538.351562 390.664062 1509.414062 431.230469 1451.539062 460.492188 Z M 1550.703125 431.765625 C 1583.355469 415.800781 1599.683594 397.050781 1599.683594 375.5 C 1585.613281 373.90625 1574.0625 368.253906 1565.042969 358.542969 C 1556.011719 348.832031 1551.507812 337.59375 1551.507812 324.824219 C 1551.507812 311.257812 1555.949219 299.820312 1564.847656 290.507812 C 1573.730469 281.199219 1584.8125 276.542969 1598.089844 276.542969 C 1612.960938 276.542969 1625.769531 282.59375 1636.519531 294.699219 C 1647.265625 306.800781 1652.648438 321.5 1652.648438 338.792969 C 1652.648438 390.664062 1623.84375 431.230469 1566.242188 460.492188 Z M 1550.703125 431.765625 "/>
</g>
</svg>
